<?xml version="1.0" encoding="UTF-8"?>
<svg version="1.1" xmlns="http://www.w3.org/2000/svg" width="532" height="116">
<path d="M0 0 C175.56 0 351.12 0 532 0 C532 38.28 532 76.56 532 116 C356.44 116 180.88 116 0 116 C0 77.72 0 39.44 0 0 Z " fill="#FDFDFD" transform="translate(0,0)"/>
<path d="M0 0 C9.14195056 5.09366528 15.50676266 11.96170667 18.625 22.0625 C18.66625 23.114375 18.7075 24.16625 18.75 25.25 C20.07156222 29.49787857 23.26002694 30.30352824 27.0390625 32.35546875 C31.54267591 35.32839784 34.55325108 39.84059641 36.25390625 44.953125 C37.67205633 53.0141886 37.4413632 60.6610254 33.3046875 67.8359375 C28.3332329 74.42600523 22.66004116 77.55145618 14.625 79.0625 C11.77077206 79.33080281 8.93835241 79.36635805 6.07275391 79.36889648 C4.85151573 79.38138176 4.85151573 79.38138176 3.60560608 79.39411926 C0.93754169 79.41804245 -1.73027753 79.42696876 -4.3984375 79.43359375 C-6.26876899 79.44257225 -8.1390998 79.4516943 -10.00942993 79.46095276 C-13.92134337 79.47739637 -17.83317168 79.48513463 -21.74511719 79.48803711 C-26.73719453 79.49342165 -31.72846306 79.53112471 -36.72031212 79.57678127 C-40.58099232 79.60664071 -44.44147958 79.61376256 -48.30226517 79.61476326 C-50.14173723 79.6189465 -51.98121088 79.63130388 -53.82056808 79.65228081 C-74.05527459 79.86472646 -74.05527459 79.86472646 -82.49276733 72.1181488 C-88.07235773 66.39010681 -90.44011031 60.61587362 -90.875 52.6875 C-90.64112223 45.65167723 -88.19196948 40.12936194 -83.4375 34.953125 C-78.67626489 30.58865948 -74.97962668 28.0625 -68.375 28.0625 C-68.33375 27.216875 -68.2925 26.37125 -68.25 25.5 C-66.81988273 19.88168215 -63.3595505 16.56301379 -58.8125 13.125 C-55.13747486 11.98908314 -52.74713695 12.14833968 -48.9375 12.375 C-44.24821655 12.58211776 -44.24821655 12.58211776 -40.2578125 10.46875 C-39.12409384 9.06858134 -38.03227415 7.63347127 -36.984375 6.16796875 C-28.56176686 -4.85092879 -11.60695488 -5.7184794 0 0 Z " fill="#020202" transform="translate(97.375,17.9375)"/>
<path d="M0 0 C4.95 0 9.9 0 15 0 C15.33 6.6 15.66 13.2 16 20 C17.98 19.01 19.96 18.02 22 17 C29.25535623 15.84005277 35.76862681 17.30022815 41.91015625 21.21875 C46.74001936 24.91036512 49.47689317 29.11485941 51 35 C52.03039955 42.87140272 51.22235569 50.17110631 47 57 C42.2166679 62.48556596 37.48928039 65.66927539 30.13671875 66.2109375 C24.38292135 66.39359773 20.84507138 66.36932487 16 63 C15.67 63.99 15.34 64.98 15 66 C10.05 66 5.1 66 0 66 C0 44.22 0 22.44 0 0 Z " fill="#090909" transform="translate(413,23)"/>
<path d="M0 0 C4.95 0 9.9 0 15 0 C15.01458252 1.33699951 15.02916504 2.67399902 15.04418945 4.05151367 C15.10222124 9.01841799 15.17945435 13.98487129 15.26245117 18.95141602 C15.29567746 21.09977898 15.32371653 23.24822875 15.34643555 25.39672852 C15.38002331 28.48751776 15.43234221 31.57751312 15.48828125 34.66796875 C15.49467117 35.62648239 15.5010611 36.58499603 15.50764465 37.57255554 C15.61553418 42.48110363 15.72437657 46.05870965 19 50 C22.44741547 51.72370774 26.23035339 51.50306672 30 51 C32.50160818 49.12379387 33.61945652 47.76108697 35 45 C35.11767472 43.5505207 35.17689268 42.09606004 35.20532227 40.64208984 C35.22526749 39.74130707 35.24521271 38.84052429 35.26576233 37.91244507 C35.28247482 36.93844757 35.29918732 35.96445007 35.31640625 34.9609375 C35.33718735 33.96494537 35.35796844 32.96895325 35.37937927 31.94277954 C35.44489042 28.75359146 35.50376704 25.56431942 35.5625 22.375 C35.60568373 20.21613707 35.64929797 18.0572827 35.69335938 15.8984375 C35.80057342 10.5990449 35.90183648 5.29956766 36 0 C40.95 0 45.9 0 51 0 C51.07463276 6.08314386 51.12882912 12.16601612 51.16479492 18.24951172 C51.17980192 20.31531421 51.200214 22.38108528 51.22631836 24.44677734 C51.26305961 27.43074338 51.27980764 30.41428507 51.29296875 33.3984375 C51.30845261 34.30927094 51.32393646 35.22010437 51.33988953 36.15853882 C51.34214326 44.91274627 49.86264231 53.00992453 43.6796875 59.53125 C37.18443062 65.21082346 30.58149027 66.43214441 22.171875 66.33984375 C14.71386249 65.54077098 9.02007738 61.78498723 4.25390625 56.13671875 C0.15628901 49.15417474 -0.42012483 43.08020329 -0.29296875 35.15625 C-0.28872391 34.14655151 -0.28447906 33.13685303 -0.28010559 32.09655762 C-0.26342214 28.89742443 -0.22578903 25.69894017 -0.1875 22.5 C-0.17243982 20.32032165 -0.15875375 18.14063335 -0.14648438 15.9609375 C-0.11355245 10.64037807 -0.06184181 5.32029875 0 0 Z " fill="#050505" transform="translate(162,24)"/>
<path d="M0 0 C5.20229379 3.9291586 9.71817192 8.8499586 10.8515625 15.3984375 C10.8515625 19.3584375 10.8515625 23.3184375 10.8515625 27.3984375 C-0.0384375 27.3984375 -10.9284375 27.3984375 -22.1484375 27.3984375 C-20.09233961 31.71166068 -20.09233961 31.71166068 -16.1484375 33.3984375 C-13.795444 33.67633537 -13.795444 33.67633537 -11.3359375 33.5859375 C-10.01722656 33.57433594 -10.01722656 33.57433594 -8.671875 33.5625 C-5.92410548 33.46114324 -5.92410548 33.46114324 -2.4609375 32.4609375 C0.8515625 32.3984375 0.8515625 32.3984375 2.8359375 33.890625 C4.61160978 35.65919459 6.26250474 37.46162242 7.8515625 39.3984375 C3.58989914 44.54794739 -1.22527173 46.09862563 -7.65234375 46.7578125 C-16.9148 47.09428922 -24.04082863 46.07952371 -31.01953125 39.68359375 C-36.03595608 34.18597709 -37.43835609 29.43538537 -37.4609375 21.9609375 C-37.47769531 20.68347656 -37.49445313 19.40601562 -37.51171875 18.08984375 C-36.92669018 12.14519862 -34.21631258 7.69230563 -30.1484375 3.3984375 C-21.35903226 -2.79702131 -9.77704967 -5.6731029 0 0 Z " fill="#090909" transform="translate(508.1484375,42.6015625)"/>
<path d="M0 0 C4.95 0 9.9 0 15 0 C15.04898437 2.19140625 15.09796875 4.3828125 15.1484375 6.640625 C15.20248602 8.76878542 15.25977816 10.89683557 15.31738281 13.02490234 C15.35560666 14.50105536 15.39047103 15.97729943 15.421875 17.45361328 C15.46766986 19.57878094 15.52563837 21.70332542 15.5859375 23.828125 C15.6173584 25.1059082 15.6487793 26.38369141 15.68115234 27.70019531 C15.97346385 30.72537324 16.40581489 32.46049109 18 35 C19.3918203 35.16374356 20.78935868 35.27920565 22.1875 35.375 C22.96480469 35.44460937 23.74210937 35.51421875 24.54296875 35.5859375 C27.51577455 34.8770013 29.15434527 33.69124655 31.00268555 31.25537109 C33.34624605 25.95553953 32.78989497 19.82694744 32.8125 14.125 C32.83566531 12.75516889 32.86103488 11.38537319 32.88867188 10.015625 C32.94744354 6.67739441 32.97660807 3.33866596 33 0 C37.95 0 42.9 0 48 0 C48 16.17 48 32.34 48 49 C43.05 49 38.1 49 33 49 C32.505 46.03 32.505 46.03 32 43 C31.071875 43.804375 30.14375 44.60875 29.1875 45.4375 C24.99507416 49.07093573 21.0378075 49.41478551 15.63671875 49.3359375 C11.25038414 48.77708598 8.16833884 47.05126397 5 44 C0.76444813 37.80013421 -0.12708118 32.02445653 -0.09765625 24.609375 C-0.0962413 23.90476135 -0.09482635 23.20014771 -0.09336853 22.47418213 C-0.08778933 20.23274416 -0.07524073 17.99140757 -0.0625 15.75 C-0.05748231 14.22656395 -0.05291987 12.70312632 -0.04882812 11.1796875 C-0.03867934 7.4530549 -0.01910009 3.7266404 0 0 Z " fill="#0B0B0B" transform="translate(356,40)"/>
<path d="M0 0 C5.92901773 2.12549692 9.73566191 5.55621942 12.62890625 11.1484375 C14.81965207 17.25755644 14.37256112 23.81798003 14.28125 30.22045898 C14.24973381 32.45638495 14.24023577 34.69160696 14.234375 36.92773438 C14.16396165 47.83603835 14.16396165 47.83603835 13 49 C10.64686445 49.07271741 8.29166332 49.08370868 5.9375 49.0625 C4.64714844 49.05347656 3.35679687 49.04445312 2.02734375 49.03515625 C1.02832031 49.02355469 0.02929688 49.01195312 -1 49 C-1.029729 47.56950317 -1.029729 47.56950317 -1.06005859 46.11010742 C-1.13615014 42.57077701 -1.22486161 39.03185583 -1.31738281 35.49291992 C-1.35565798 33.96142661 -1.39051349 32.42984385 -1.421875 30.89819336 C-1.46755807 28.6961267 -1.52554537 26.49467504 -1.5859375 24.29296875 C-1.59748871 23.60849167 -1.60903992 22.92401459 -1.62094116 22.21879578 C-1.73273744 18.61539163 -1.94394553 17.0840817 -4 14 C-6.0249147 13.44693117 -6.0249147 13.44693117 -8.3125 13.5 C-9.07175781 13.4690625 -9.83101562 13.438125 -10.61328125 13.40625 C-14.21649454 14.30263039 -15.66230634 16.16593367 -18 19 C-18.77326169 22.36687898 -18.77326169 22.36687898 -18.70703125 26.05078125 C-18.72215256 26.70958786 -18.73727386 27.36839447 -18.75285339 28.04716492 C-18.79558566 30.135962 -18.80455265 32.2233102 -18.8125 34.3125 C-18.83565614 35.73506417 -18.86102383 37.15759417 -18.88867188 38.58007812 C-18.9555202 42.05416509 -18.97661586 45.5242667 -19 49 C-23.95 49 -28.9 49 -34 49 C-34 33.16 -34 17.32 -34 1 C-29.38 1 -24.76 1 -20 1 C-20 3.31 -20 5.62 -20 8 C-19.34 8 -18.68 8 -18 8 C-17.79375 7.4225 -17.5875 6.845 -17.375 6.25 C-13.29504498 -0.42629003 -7.12055471 -0.95250487 0 0 Z " fill="#090909" transform="translate(257,40)"/>
<path d="M0 0 C15.51 0 31.02 0 47 0 C47 4.62 47 9.24 47 14 C41.72 14 36.44 14 31 14 C31 30.83 31 47.66 31 65 C26.05 65 21.1 65 16 65 C16 48.17 16 31.34 16 14 C10.72 14 5.44 14 0 14 C0 9.38 0 4.76 0 0 Z " fill="#070707" transform="translate(302,24)"/>
<path d="M0 0 C4.95 0 9.9 0 15 0 C15 16.17 15 32.34 15 49 C10.05 49 5.1 49 0 49 C0 32.83 0 16.66 0 0 Z " fill="#0C0C0C" transform="translate(279,40)"/>
<path d="M0 0 C4.19005668 0.81320179 6.26010195 2.92131639 8.6875 6.2734375 C9.71029387 9.52778163 9.72624367 12.06558204 9.375 15.4609375 C7.34833762 19.16483771 5.89455484 21.11456761 2.375 23.4609375 C-2.18503341 24.11563345 -6.28022333 24.40228117 -10.125 21.7109375 C-13.22568432 17.05991103 -14.0359262 14.26841361 -13.2109375 8.72265625 C-11.36511947 1.59779864 -7.09005903 -0.44312869 0 0 Z " fill="#F7F7F7" transform="translate(440.625,52.5390625)"/>
<path d="M0 0 C3.89256423 1.94628212 6.22195748 3.8670107 9.375 6.8125 C13.17115774 10.32407296 16.9839451 13.74373927 21 17 C15.24545384 24.30982891 8.36659845 30.81670077 0 35 C0 23.45 0 11.9 0 0 Z " fill="#F3F3F3" transform="translate(63,46)"/>
<path d="M0 0 C4.95 0 9.9 0 15 0 C15 4.29 15 8.58 15 13 C10.05 13 5.1 13 0 13 C0 8.71 0 4.42 0 0 Z " fill="#151515" transform="translate(279,23)"/>
<path d="M0 0 C2.5625 1.9375 2.5625 1.9375 4 4 C4 4.66 4 5.32 4 6 C-2.27 6 -8.54 6 -15 6 C-11.38178785 -1.23642429 -7.58343806 -2.08718479 0 0 Z " fill="#F1F1F1" transform="translate(501,53)"/>
</svg>
